<svg width="908" height="120" viewBox="0 0 908 120" fill="none" xmlns="http://www.w3.org/2000/svg">
<path fill-rule="evenodd" clip-rule="evenodd" d="M92.9451 81.2187L107.455 81.161L110.91 81.1471C117.808 81.1431 124.591 79.3806 130.618 76.0262C136.645 72.6719 141.718 67.8363 145.357 61.9764C149.691 51.5864 150.861 45.3378 150.851 33.4382C150.846 33.4144 150.84 33.3914 150.834 33.3684C150.829 33.3499 150.824 33.3314 150.82 33.3124C149.109 23.971 144.18 15.5239 136.889 9.43842C129.599 3.3529 120.406 0.0134118 110.91 0H110.894L51.3926 0.175637C41.847 0.15668 32.6017 3.51127 25.2893 9.64704C17.9769 15.7828 13.0678 24.3051 11.4288 33.7089C11.4203 33.7578 11.4123 33.8073 11.4051 33.8562L0.386682 90.5231C0.380738 90.5542 0.375124 90.5852 0.369512 90.6163C-0.528973 95.7145 0.221041 100.966 2.51064 105.609C4.80024 110.252 8.51022 114.045 13.1018 116.435C17.6935 118.826 22.9277 119.691 28.0444 118.905C33.1611 118.118 37.8939 115.721 41.5556 112.062C41.6536 111.964 41.7474 111.863 41.8369 111.76L69.3789 81.3129L92.9451 81.2187ZM59.5043 46.159H64.9141C66.3489 46.159 67.7249 45.589 68.7394 44.5745C69.754 43.56 70.3239 42.184 70.3239 40.7492C70.3239 39.3144 69.754 37.9384 68.7394 36.9239C67.7249 35.9094 66.3489 35.3394 64.9141 35.3394H59.5043V29.9296C59.5043 28.4948 58.9343 27.1188 57.9198 26.1043C56.9053 25.0897 55.5293 24.5198 54.0945 24.5198C52.6597 24.5198 51.2837 25.0897 50.2692 26.1043C49.2547 27.1188 48.6847 28.4948 48.6847 29.9296V35.3394H43.2749C41.8401 35.3394 40.4641 35.9094 39.4496 36.9239C38.435 37.9384 37.8651 39.3144 37.8651 40.7492C37.8651 42.184 38.435 43.56 39.4496 44.5745C40.4641 45.589 41.8401 46.159 43.2749 46.159H48.6847V51.5688C48.6847 53.0036 49.2547 54.3796 50.2692 55.3941C51.2837 56.4087 52.6597 56.9786 54.0945 56.9786C55.5293 56.9786 56.9053 56.4087 57.9198 55.3941C58.9343 54.3796 59.5043 53.0036 59.5043 51.5688V46.159ZM93.5477 36.9239C92.5331 37.9384 91.9632 39.3144 91.9632 40.7492C91.9632 42.184 92.5331 43.56 93.5477 44.5745C94.5622 45.589 95.9382 46.159 97.373 46.159H119.012C120.447 46.159 121.823 45.589 122.838 44.5745C123.852 43.56 124.422 42.184 124.422 40.7492C124.422 39.3144 123.852 37.9384 122.838 36.9239C121.823 35.9094 120.447 35.3394 119.012 35.3394H97.373C95.9382 35.3394 94.5622 35.9094 93.5477 36.9239Z" fill="white"/>
<path d="M133.956 107.763C136.008 108.397 138.182 108.535 140.298 108.163C143.822 107.538 146.954 105.543 149.011 102.615C151.069 99.6869 151.883 96.0634 151.276 92.5366L145.357 61.9764C141.718 67.8363 136.645 72.6719 130.618 76.0262C124.591 79.3806 117.808 81.1431 110.91 81.1471L107.455 81.161L128.494 104.515C130.031 106.016 131.904 107.129 133.956 107.763Z" fill="#FC0505"/>
<path d="M161.924 90.6163C161.919 90.5865 161.913 90.5568 161.907 90.5271L150.851 33.4382C150.861 45.3378 149.691 51.5864 145.357 61.9764L151.276 92.5366C151.883 96.0634 151.069 99.6869 149.011 102.615C146.954 105.543 143.822 107.538 140.298 108.163C138.182 108.535 136.008 108.397 133.956 107.763C131.904 107.129 130.031 106.016 128.494 104.515L107.455 81.161L92.9451 81.2187L120.448 111.75C120.54 111.857 120.637 111.961 120.738 112.062C124.399 115.722 129.132 118.119 134.249 118.906C139.366 119.693 144.6 118.828 149.192 116.437C153.784 114.046 157.494 110.253 159.784 105.61C162.073 100.967 162.823 95.7147 161.924 90.6163Z" fill="white"/>
<path d="M64.9141 46.159H59.5043V51.5688C59.5043 53.0036 58.9343 54.3796 57.9198 55.3941C56.9053 56.4087 55.5293 56.9786 54.0945 56.9786C52.6597 56.9786 51.2837 56.4087 50.2692 55.3941C49.2547 54.3796 48.6847 53.0036 48.6847 51.5688V46.159H43.2749C41.8401 46.159 40.4641 45.589 39.4496 44.5745C38.435 43.56 37.8651 42.184 37.8651 40.7492C37.8651 39.3144 38.435 37.9384 39.4496 36.9239C40.4641 35.9094 41.8401 35.3394 43.2749 35.3394H48.6847V29.9296C48.6847 28.4948 49.2547 27.1188 50.2692 26.1043C51.2837 25.0897 52.6597 24.5198 54.0945 24.5198C55.5293 24.5198 56.9053 25.0897 57.9198 26.1043C58.9343 27.1188 59.5043 28.4948 59.5043 29.9296V35.3394H64.9141C66.3489 35.3394 67.7249 35.9094 68.7394 36.9239C69.754 37.9384 70.3239 39.3144 70.3239 40.7492C70.3239 42.184 69.754 43.56 68.7394 44.5745C67.7249 45.589 66.3489 46.159 64.9141 46.159Z" fill="#FC0505"/>
<path d="M320.705 96.9736H257.179C249.281 96.9736 242.473 94.6229 236.757 89.9215C231.115 85.1825 228.294 79.5031 228.294 72.8835V43.998C228.294 37.416 231.115 31.7743 236.757 27.0729C242.398 22.3339 249.206 19.9644 257.179 19.9644H381.826V39.2026H259.493C257.311 39.2026 255.393 39.8608 253.738 41.1772C252.196 42.4936 251.425 44.0732 251.425 45.9162V70.9654C251.425 72.8459 252.196 74.4444 253.738 75.7608C255.393 77.0772 257.311 77.7354 259.493 77.7354H297.63V66.1699H274.5V50.7681H320.705V96.9736Z" fill="white"/>
<path d="M425.826 72.8835C425.826 79.5031 423.005 85.1825 417.363 89.9215C411.646 94.6229 404.839 96.9736 396.94 96.9736H362.3C354.402 96.9736 347.594 94.6229 341.877 89.9215C336.236 85.1825 333.415 79.5031 333.415 72.8835V42.7819H356.156L356.546 70.9654C356.546 72.8459 357.317 74.4444 358.859 75.7608C360.514 77.0772 362.432 77.7354 364.613 77.7354H394.627C396.809 77.7354 398.727 77.0772 400.382 75.7608C401.961 74.482 402.751 72.8835 402.751 70.9654V42.7819H425.826V72.8835Z" fill="white"/>
<path d="M554.078 96.9736H530.947V45.9162C530.947 44.0732 530.157 42.4936 528.577 41.1772C527.035 39.8608 525.136 39.2026 522.879 39.2026H507.872V96.9736H484.741V39.2026H461.666V96.9736H438.535V19.9644H525.192C533.166 19.9644 539.973 22.3339 545.615 27.0729C551.257 31.7743 554.078 37.416 554.078 43.998V96.9736Z" fill="white"/>
<path d="M659.198 72.8835C659.198 79.5031 656.377 85.1825 650.736 89.9215C645.019 94.6229 638.211 96.9736 630.313 96.9736H566.787V19.9644H630.313C638.286 19.9644 645.094 22.3339 650.736 27.0729C656.377 31.7743 659.198 37.416 659.198 43.998V72.8835ZM636.124 70.9654V45.9162C636.124 44.0732 635.334 42.4936 633.754 41.1772C632.099 39.8608 630.181 39.2026 628 39.2026H589.918V77.7354H628C630.181 77.7354 632.099 77.0772 633.754 75.7608C635.334 74.482 636.124 72.8835 636.124 70.9654Z" fill="white"/>
<path d="M764.319 72.8835C764.319 79.5031 761.498 85.1825 755.857 89.9215C750.14 94.6229 743.332 96.9736 735.434 96.9736H700.793C692.895 96.9736 686.087 94.6229 680.371 89.9215C674.729 85.1825 671.908 79.5031 671.908 72.8835V19.9644H695.039V70.9654C695.039 72.8459 695.81 74.4444 697.352 75.7608C699.007 77.0772 700.925 77.7354 703.107 77.7354H733.12C735.302 77.7354 737.22 77.0772 738.875 75.7608C740.455 74.482 741.245 72.8835 741.245 70.9654V19.9644H764.319V72.8835Z" fill="white"/>
<path d="M800.16 39.2026V96.9736H777.029V58.469V39.2167V19.9644H800.16V39.2026Z" fill="white"/>
<path d="M867.217 56.3207V96.9744H844.369V69.8786V56.3306V42.7827H867.217V56.3207Z" fill="white"/>
<path d="M827.981 42.8123L778.769 42.8123L778.769 19.9644L811.569 19.9644L827.969 19.9644L844.369 19.9644L844.369 42.8123L827.981 42.8123Z" fill="white"/>
<rect x="515.88" y="51.3389" width="96.9746" height="17.1132" fill="#FC0505"/>
</svg>
